<svg xmlns="http://www.w3.org/2000/svg" height="40" viewBox="0 96 960 960" width="40"><path d="M479.956 571.268q31.03 0 53.337-22.097 22.308-22.097 22.308-53.127 0-31.029-22.166-53.337-22.166-22.308-53.293-22.308-31.128 0-53.269 22.166t-22.141 53.293q0 31.127 22.097 53.269 22.097 22.141 53.127 22.141ZM480 987.443Q314.413 846.254 232.753 726.386q-81.659-119.867-81.659-222.335 0-154.447 99.183-245.869t229.715-91.422q130.531 0 229.889 91.5 99.359 91.5 99.359 245.712 0 102.482-81.827 222.382Q645.587 846.254 480 987.443Z"/></svg>