<svg xmlns="http://www.w3.org/2000/svg" height="40" viewBox="0 96 960 960" width="40"><path d="M791.232 943.841q-124.37 0-246.185-59.652T326.616 728.192q-96.617-96.344-156.436-218.264-59.818-121.921-59.818-245.914 0-24.572 16.916-41.489 16.917-16.917 41.49-16.917h142.478q24.74 0 40.642 13.145 15.902 13.145 21.374 37.899l26.478 118.014q3.884 20.747-.939 37.167-4.822 16.421-17.743 28.022l-100.536 94.899q47.565 77.333 107.261 136.163 59.695 58.829 134.376 102.242l98.536-98.551q14.254-14.355 30.631-19.663 16.377-5.308 35.892-.569l110.333 24.681q24.652 6.015 38.37 22.508 13.717 16.493 13.717 41.435v141.87q0 24.949-16.916 41.96-16.917 17.011-41.49 17.011Z"/></svg>